<svg width="26" height="26" viewBox="0 0 26 26" fill="none" xmlns="http://www.w3.org/2000/svg">
<path d="M13.285 0.980682C10.8314 0.980682 8.43286 1.70827 6.39274 3.07144C4.35261 4.4346 2.76253 6.37212 1.82357 8.63899C0.884602 10.9058 0.638926 13.4002 1.11761 15.8067C1.59629 18.2132 2.77782 20.4237 4.51281 22.1587C6.24779 23.8937 8.45829 25.0752 10.8648 25.5539C13.2713 26.0326 15.7657 25.7869 18.0325 24.8479C20.2994 23.909 22.2369 22.3189 23.6001 20.2788C24.9632 18.2386 25.6908 15.8401 25.6908 13.3865C25.6813 10.0992 24.3712 6.94927 22.0467 4.6248C19.7222 2.30033 16.5723 0.990229 13.285 0.980682V0.980682ZM13.285 24.2416C11.1381 24.2416 9.03938 23.6049 7.25427 22.4121C5.46917 21.2194 4.07785 19.524 3.25625 17.5405C2.43466 15.557 2.21969 13.3744 2.63853 11.2688C3.05738 9.16308 4.09122 7.22889 5.60933 5.71078C7.12744 4.19268 9.06163 3.15883 11.1673 2.73998C13.273 2.32114 15.4556 2.53611 17.4391 3.3577C19.4226 4.1793 21.1179 5.57062 22.3107 7.35572C23.5035 9.14083 24.1401 11.2395 24.1401 13.3865C24.1401 16.2654 22.9964 19.0265 20.9607 21.0622C18.925 23.0979 16.164 24.2416 13.285 24.2416Z" fill="#8996B8"/>
<path d="M13.285 9.25122C12.4672 9.25122 11.6677 9.49375 10.9876 9.94814C10.3076 10.4025 9.77755 11.0484 9.46456 11.804C9.15157 12.5596 9.06968 13.3911 9.22924 14.1932C9.3888 14.9954 9.78265 15.7322 10.361 16.3106C10.9393 16.8889 11.6761 17.2827 12.4783 17.4423C13.2805 17.6019 14.1119 17.52 14.8675 17.207C15.6232 16.894 16.269 16.364 16.7234 15.6839C17.1778 15.0039 17.4203 14.2044 17.4203 13.3865C17.417 12.2908 16.9803 11.2408 16.2055 10.466C15.4307 9.69122 14.3808 9.25449 13.285 9.25122V9.25122ZM13.285 15.971C12.9447 15.9743 12.6071 15.9098 12.2921 15.781C11.977 15.6523 11.6908 15.4621 11.4501 15.2214C11.2095 14.9808 11.0192 14.6945 10.8905 14.3795C10.7618 14.0644 10.6972 13.7268 10.7005 13.3865C10.6972 13.0462 10.7618 12.7086 10.8905 12.3935C11.0192 12.0784 11.2095 11.7922 11.4501 11.5516C11.6908 11.3109 11.977 11.1206 12.2921 10.9919C12.6071 10.8632 12.9447 10.7986 13.285 10.8019C13.6254 10.7986 13.9629 10.8632 14.278 10.9919C14.5931 11.1206 14.8793 11.3109 15.12 11.5516C15.3606 11.7922 15.5509 12.0784 15.6796 12.3935C15.8083 12.7086 15.8729 13.0462 15.8696 13.3865C15.8729 13.7268 15.8083 14.0644 15.6796 14.3795C15.5509 14.6945 15.3606 14.9808 15.12 15.2214C14.8793 15.4621 14.5931 15.6523 14.278 15.781C13.9629 15.9098 13.6254 15.9743 13.285 15.971Z" fill="#8996B8"/>
</svg>
