<svg width="29" height="29" viewBox="0 0 29 29" fill="none" xmlns="http://www.w3.org/2000/svg">
<path d="M18.25 12.8288H10.75" stroke="#8996B8" stroke-opacity="0.6" stroke-width="2.5" stroke-linecap="round"/>
<path d="M17 23.6576C21.7137 23.6576 24.0712 23.6576 25.535 22.0712C27 20.4861 27 17.9332 27 12.8288C27 7.72437 27 5.17148 25.535 3.58642C24.0712 2 21.7137 2 17 2H12C7.28625 2 4.92875 2 3.465 3.58642C2 5.17148 2 7.72437 2 12.8288C2 17.9332 2 20.4861 3.465 22.0712C4.28125 22.9564 5.375 23.3476 7 23.5195" stroke="#8996B8" stroke-opacity="0.6" stroke-width="2.5" stroke-linecap="round" stroke-linejoin="round"/>
<path d="M16.9999 23.6576C15.4549 23.6576 13.7524 24.3344 12.1987 25.2075C9.70118 26.6112 8.45243 27.3137 7.83743 26.8656C7.22243 26.4189 7.33868 25.0315 7.57243 22.258L7.62493 21.6272" stroke="#8996B8" stroke-opacity="0.6" stroke-width="2.5" stroke-linecap="round"/>
</svg>
