<svg width="20" height="25" viewBox="0 0 20 25" fill="none" xmlns="http://www.w3.org/2000/svg">
<path d="M10 0C10.3315 0 10.6495 0.131696 10.8839 0.366116C11.1183 0.600537 11.25 0.918479 11.25 1.25V14.4825L14.1163 11.6163C14.352 11.3886 14.6678 11.2626 14.9955 11.2654C15.3232 11.2683 15.6368 11.3997 15.8685 11.6315C16.1003 11.8632 16.2317 12.1768 16.2346 12.5045C16.2374 12.8322 16.1114 13.148 15.8838 13.3837L10.8837 18.3838C10.6493 18.6181 10.3315 18.7497 10 18.7497C9.66854 18.7497 9.35066 18.6181 9.11625 18.3838L4.11625 13.3837C3.99686 13.2684 3.90163 13.1305 3.83612 12.978C3.77061 12.8255 3.73613 12.6615 3.73469 12.4955C3.73324 12.3295 3.76487 12.1649 3.82772 12.0113C3.89057 11.8577 3.98339 11.7181 4.10076 11.6008C4.21812 11.4834 4.35769 11.3906 4.51131 11.3277C4.66493 11.2649 4.82953 11.2332 4.9955 11.2347C5.16148 11.2361 5.3255 11.2706 5.47801 11.3361C5.63051 11.4016 5.76844 11.4969 5.88375 11.6163L8.75 14.4825V1.25C8.75 0.918479 8.8817 0.600537 9.11612 0.366116C9.35054 0.131696 9.66848 0 10 0ZM1.25 18.75C1.58152 18.75 1.89946 18.8817 2.13388 19.1161C2.3683 19.3505 2.5 19.6685 2.5 20V22.5H17.5V20C17.5 19.6685 17.6317 19.3505 17.8661 19.1161C18.1005 18.8817 18.4185 18.75 18.75 18.75C19.0815 18.75 19.3995 18.8817 19.6339 19.1161C19.8683 19.3505 20 19.6685 20 20V22.5C20 23.163 19.7366 23.7989 19.2678 24.2678C18.7989 24.7366 18.163 25 17.5 25H2.5C1.83696 25 1.20107 24.7366 0.732233 24.2678C0.263392 23.7989 0 23.163 0 22.5V20C0 19.6685 0.131696 19.3505 0.366117 19.1161C0.600537 18.8817 0.918479 18.75 1.25 18.75Z" fill="#8996B8" fill-opacity="0.6"/>
</svg>
