<svg width="31" height="25" viewBox="0 0 31 25" fill="none" xmlns="http://www.w3.org/2000/svg">
    <defs>
        <linearGradient id="paint0_linear_800_901" x1="31.9066" y1="-7.34254" x2="18.5477" y2="33.4371" gradientUnits="userSpaceOnUse">
            <stop stop-color="#9B2DEF"/>
            <stop offset="0.597" stop-color="#2D9BEF"/>
            <stop offset="1" stop-color="#2DCEEF"/>
        </linearGradient>
        <linearGradient id="paint1_linear_800_901" x1="30.4226" y1="7.49811" x2="26.658" y2="17.3483" gradientUnits="userSpaceOnUse">
            <stop stop-color="#9B2DEF"/>
            <stop offset="0.597" stop-color="#2D9BEF"/>
            <stop offset="1" stop-color="#2DCEEF"/>
        </linearGradient>
    </defs>
    <path fill-rule="evenodd" clip-rule="evenodd" d="M24.2519 24.8899H25.7961V18.5638C25.2668 18.4379 24.7499 18.2643 24.2519 18.0452V24.8899ZM18.5884 24.8899H20.1326V0H18.5884V24.8899ZM12.8222 24.8899H14.3664V0H12.8222V24.8899ZM0.980835 24.2677L2.42238 24.7862L10.8663 1.34821L9.42475 0.829665L0.980835 24.2677ZM24.2519 0V6.84474C24.7503 6.62559 25.2675 6.45203 25.7971 6.32619V0H24.2519ZM30.0181 12.445C30.0138 13.0551 29.8289 13.6502 29.4868 14.1554C29.1448 14.6606 28.6608 15.0532 28.0959 15.2837C27.531 15.5142 26.9105 15.5723 26.3126 15.4506C25.7148 15.329 25.1663 15.033 24.7364 14.6001C24.3065 14.1672 24.0145 13.6166 23.897 13.018C23.7796 12.4193 23.842 11.7992 24.0765 11.2359C24.3109 10.6727 24.7069 10.1914 25.2145 9.85293C25.7221 9.5144 26.3185 9.33375 26.9286 9.33373C27.7502 9.33921 28.5362 9.66942 29.1152 10.2523C29.6942 10.8352 30.0191 11.6234 30.0191 12.445H30.0181Z" fill="url(#paint0_linear_800_901)"/>
<path fill-rule="evenodd" clip-rule="evenodd" d="M30.0181 12.445C30.0181 13.0603 29.8357 13.6619 29.4938 14.1735C29.1519 14.6851 28.666 15.0839 28.0975 15.3194C27.529 15.5549 26.9034 15.6165 26.2999 15.4964C25.6964 15.3764 25.142 15.0801 24.7069 14.645C24.2718 14.2098 23.9755 13.6555 23.8554 13.052C23.7354 12.4484 23.797 11.8229 24.0325 11.2544C24.268 10.6859 24.6667 10.1999 25.1784 9.85808C25.69 9.51621 26.2916 9.33374 26.9069 9.33374C27.7313 9.3362 28.5212 9.66478 29.1042 10.2477C29.6871 10.8307 30.0157 11.6206 30.0181 12.445Z" fill="url(#paint1_linear_800_901)"/>

</svg>
