<svg width="26" height="26" viewBox="0 0 26 26" fill="none" xmlns="http://www.w3.org/2000/svg">
<path d="M13.3337 25.6619C10.8801 25.6715 8.4787 24.9533 6.43327 23.5981C4.38784 22.2429 2.79019 20.3117 1.84237 18.0485C0.894544 15.7853 0.639108 13.2919 1.10836 10.8836C1.57762 8.47525 2.75049 6.26016 4.47865 4.5184C6.20682 2.77664 8.41267 1.58647 10.8173 1.09836C13.2218 0.610259 15.7172 0.846138 17.9877 1.77621C20.2582 2.70627 22.2019 4.28876 23.5731 6.32351C24.9443 8.35826 25.6812 10.7539 25.6909 13.2075C25.6848 16.4919 24.384 19.6415 22.0706 21.9731C19.7573 24.3046 16.618 25.6301 13.3337 25.6619ZM13.3337 2.31006C11.1591 2.31006 9.03343 2.95489 7.22537 4.16299C5.41731 5.3711 4.0081 7.08821 3.17594 9.09722C2.34378 11.1062 2.12605 13.3169 2.55028 15.4496C2.97451 17.5824 4.02165 19.5414 5.55928 21.0791C7.09691 22.6167 9.05596 23.6638 11.1887 24.0881C13.3215 24.5123 15.5321 24.2946 17.5411 23.4624C19.5501 22.6302 21.2673 21.221 22.4754 19.413C23.6835 17.6049 24.3283 15.4792 24.3283 13.3047C24.3298 11.8604 24.0464 10.4301 23.4944 9.09546C22.9424 7.76085 22.1326 6.54822 21.1114 5.52698C20.0901 4.50573 18.8775 3.69591 17.5429 3.14391C16.2083 2.59191 14.7779 2.30856 13.3337 2.31006Z" fill="#1C4ECF"/>
<path d="M15.728 7.05313V11.6909H10.8422V7.05313H8.11603V19.4589H10.8422V14.1255H15.727V19.4589H18.4542V7.05313H15.728Z" fill="#8996B8"/>
</svg>
