<svg width="34" height="43" viewBox="0 0 34 43" fill="none" xmlns="http://www.w3.org/2000/svg">
<path d="M3.64478 7.12656L4.99082 5.6316C4.40038 5.09998 3.55236 4.96567 2.82655 5.28883C2.10074 5.61199 1.63312 6.33206 1.63312 7.12656H3.64478ZM3.64478 35.1009H1.63312C1.63312 35.8954 2.10074 36.6155 2.82655 36.9387C3.55236 37.2618 4.40038 37.1275 4.99082 36.5959L3.64478 35.1009ZM19.1795 21.1138L20.5255 22.6087C20.9492 22.2272 21.1912 21.6839 21.1912 21.1138C21.1912 20.5436 20.9492 20.0003 20.5255 19.6188L19.1795 21.1138ZM1.63312 7.12656V35.1009H5.65643V7.12656H1.63312ZM4.99082 36.5959L20.5255 22.6087L17.8335 19.6188L2.29873 33.606L4.99082 36.5959ZM20.5255 19.6188L4.99082 5.6316L2.29873 8.62153L17.8335 22.6087L20.5255 19.6188ZM28.2641 5.72784V36.4997H32.2874V5.72784H28.2641Z" fill="#EAF0FF"/>
</svg>
