<svg width="30" height="31" viewBox="0 0 30 31" fill="none" xmlns="http://www.w3.org/2000/svg">
    <defs>
        <linearGradient id="paint0_linear_800_911" x1="18.4349" y1="27.1061" x2="17.879" y2="30.4615" gradientUnits="userSpaceOnUse">
            <stop stop-color="#9B2DEF"/>
            <stop offset="0.597" stop-color="#2D9BEF"/>
            <stop offset="1" stop-color="#2DCEEF"/>
        </linearGradient>
        <linearGradient id="paint1_linear_800_911" x1="29.9892" y1="-4.693" x2="15.512" y2="33.9984" gradientUnits="userSpaceOnUse">
            <stop stop-color="#9B2DEF"/>
            <stop offset="0.597" stop-color="#2D9BEF"/>
            <stop offset="1" stop-color="#2DCEEF"/>
        </linearGradient>
        <clipPath id="clip0_800_911">
            <rect width="30" height="30" fill="white" transform="translate(0 0.364014)"/>
        </clipPath>
    </defs>
    <g clip-path="url(#clip0_800_911)">
<path d="M16 29.5667C16.5249 29.5546 17.0287 29.3572 17.4222 29.0095C17.8156 28.6618 18.0734 28.1862 18.15 27.6667H13.7667C13.8454 28.2003 14.1153 28.6871 14.5261 29.0366C14.9369 29.3861 15.4607 29.5745 16 29.5667Z" fill="url(#paint0_linear_800_911)"/>
<path d="M28.375 24.4417L28.0917 24.1917C27.2879 23.4755 26.5843 22.6542 26 21.75C25.3619 20.5021 24.9794 19.1394 24.875 17.7417V13.625C24.8716 13.125 24.827 12.6261 24.7417 12.1334C23.3301 11.8432 22.0622 11.0742 21.1525 9.9565C20.2429 8.83881 19.7474 7.4411 19.75 6.00002V5.47502C18.88 5.04684 17.9452 4.76528 16.9834 4.64169V3.59169C16.9834 3.29663 16.8661 3.01367 16.6575 2.80503C16.4489 2.5964 16.1659 2.47919 15.8709 2.47919C15.5758 2.47919 15.2928 2.5964 15.0842 2.80503C14.8756 3.01367 14.7584 3.29663 14.7584 3.59169V4.68335C12.6048 4.98715 10.6338 6.05981 9.20937 7.7033C7.78491 9.34679 7.00313 11.4501 7.00835 13.625V17.7417C6.90398 19.1394 6.5215 20.5021 5.88335 21.75C5.30909 22.652 4.61685 23.4731 3.82502 24.1917L3.54169 24.4417V26.7917H28.375V24.4417Z" fill="url(#paint1_linear_800_911)"/>
<path d="M26 10.1666C28.3012 10.1666 30.1666 8.30117 30.1666 5.99998C30.1666 3.69879 28.3012 1.83331 26 1.83331C23.6988 1.83331 21.8333 3.69879 21.8333 5.99998C21.8333 8.30117 23.6988 10.1666 26 10.1666Z" fill="#F70F0F"/>
</g>

</svg>
