<svg width="26" height="26" viewBox="0 0 26 26" fill="none" xmlns="http://www.w3.org/2000/svg">
<path d="M8.63286 0.734314V17.4821C7.84211 16.7802 6.83426 16.3711 5.77797 16.3234C4.72169 16.2757 3.68107 16.5923 2.83027 17.2201C1.97947 17.8479 1.37012 18.7489 1.1042 19.7723C0.838282 20.7957 0.931927 21.8793 1.36947 22.8419C1.80701 23.8045 2.56189 24.5876 3.50778 25.0602C4.45367 25.5327 5.53316 25.6661 6.56561 25.4379C7.59805 25.2097 8.52079 24.6338 9.17939 23.8066C9.838 22.9794 10.1925 21.9511 10.1836 20.8937V0.734314H8.63286ZM5.53141 23.9952C4.918 23.9952 4.31837 23.8133 3.80834 23.4725C3.29831 23.1317 2.90079 22.6473 2.66605 22.0806C2.43131 21.5139 2.36989 20.8903 2.48956 20.2887C2.60923 19.687 2.90461 19.1344 3.33836 18.7007C3.7721 18.2669 4.32473 17.9716 4.92635 17.8519C5.52797 17.7322 6.15157 17.7936 6.71828 18.0284C7.285 18.2631 7.76938 18.6606 8.11017 19.1707C8.45096 19.6807 8.63286 20.2803 8.63286 20.8937C8.64044 21.3031 8.56539 21.7098 8.41221 22.0895C8.25903 22.4692 8.03086 22.8141 7.74134 23.1037C7.45182 23.3932 7.1069 23.6214 6.72719 23.7745C6.34748 23.9277 5.94078 24.0028 5.53141 23.9952Z" fill="#8996B8"/>
<path d="M25.6908 6.67873H13.285V8.22945H25.6908V6.67873Z" fill="#8996B8"/>
<path d="M23.6232 12.3647H13.285V13.9154H23.6232V12.3647Z" fill="#8996B8"/>
<path d="M21.5556 18.0507H13.285V19.6014H21.5556V18.0507Z" fill="#8996B8"/>
</svg>
