<svg width="26" height="26" viewBox="0 0 26 26" fill="none" xmlns="http://www.w3.org/2000/svg">
<path d="M21.5556 0.227051H5.01449C3.91876 0.230323 2.86884 0.667053 2.09403 1.44186C1.31923 2.21666 0.882499 3.26658 0.879227 4.36232L0.879227 20.9034C0.882499 21.9991 1.31923 23.049 2.09403 23.8238C2.86884 24.5986 3.91876 25.0354 5.01449 25.0386H21.5556C22.6513 25.0354 23.7012 24.5986 24.476 23.8238C25.2508 23.049 25.6875 21.9991 25.6908 20.9034V4.36232C25.6875 3.26658 25.2508 2.21666 24.476 1.44186C23.7012 0.667053 22.6513 0.230323 21.5556 0.227051V0.227051ZM24.1401 20.9034C24.1434 21.2437 24.0788 21.5813 23.9501 21.8963C23.8214 22.2114 23.6312 22.4977 23.3905 22.7383C23.1498 22.979 22.8636 23.1692 22.5485 23.2979C22.2335 23.4266 21.8959 23.4912 21.5556 23.4879H5.01449C4.67416 23.4912 4.33659 23.4266 4.02152 23.2979C3.70645 23.1692 3.42022 22.979 3.17956 22.7383C2.9389 22.4977 2.74865 22.2114 2.61994 21.8963C2.49122 21.5813 2.42664 21.2437 2.42995 20.9034V4.36232C2.42664 4.02199 2.49122 3.68442 2.61994 3.36935C2.74865 3.05428 2.9389 2.76804 3.17956 2.52738C3.42022 2.28672 3.70645 2.09647 4.02152 1.96776C4.33659 1.83905 4.67416 1.77446 5.01449 1.77778H21.5556C21.8959 1.77446 22.2335 1.83905 22.5485 1.96776C22.8636 2.09647 23.1498 2.28672 23.3905 2.52738C23.6312 2.76804 23.8214 3.05428 23.9501 3.36935C24.0788 3.68442 24.1434 4.02199 24.1401 4.36232V20.9034Z" fill="#8996B8"/>
<path d="M17.11 19.146C18.019 18.2995 18.7449 17.2757 19.2427 16.1377C19.7406 14.9997 20.0002 13.7717 20.005 12.5295C20.027 11.3668 19.8189 10.2112 19.3932 9.12899C18.9674 8.04677 18.3324 7.05927 17.5239 6.22327L18.4542 5.18945C19.4171 6.15203 20.1782 7.29706 20.693 8.55743C21.2078 9.8178 21.4658 11.1681 21.4522 12.5295C21.4446 13.9771 21.148 15.4086 20.5799 16.74C20.0119 18.0714 19.1835 19.276 18.1438 20.2831L17.11 19.146ZM4.91115 12.4262C4.95182 9.72002 6.0241 7.13151 7.90911 5.18945L9.04641 6.22327C7.41483 7.88779 6.45721 10.0975 6.35839 12.4262C6.41587 14.9264 7.45612 17.3035 9.25338 19.0426L8.21956 20.1798C6.13665 18.1332 4.94726 15.3461 4.91115 12.4262ZM14.7324 16.4581C15.2984 15.9746 15.7495 15.3713 16.0534 14.6918C16.3574 14.0123 16.5069 13.2737 16.4901 12.5295C16.4996 11.119 15.9832 9.75543 15.0423 8.70445L16.1796 7.67064C16.7938 8.3186 17.2743 9.08123 17.5936 9.91495C17.9129 10.7487 18.065 11.6371 18.0408 12.5295C18.0846 13.493 17.9013 14.4533 17.5062 15.3331C17.1112 16.213 16.5153 16.9878 15.7662 17.5953L14.7324 16.4581ZM8.52951 12.4262C8.49094 11.5476 8.63659 10.6706 8.95707 9.8516C9.27754 9.03261 9.76554 8.28974 10.3902 7.67064L11.5275 8.70445C10.5891 9.71575 10.0717 11.0466 10.0802 12.4262C10.0735 13.184 10.2267 13.9346 10.5295 14.6293C10.8323 15.324 11.2782 15.9472 11.8379 16.4581L10.8041 17.5953C10.0889 16.9372 9.51759 16.1382 9.12617 15.2486C8.73475 14.359 8.53146 13.3981 8.52951 12.4262Z" fill="#8996B8"/>
</svg>
