<svg width="34" height="43" viewBox="0 0 34 43" fill="none" xmlns="http://www.w3.org/2000/svg">
<path d="M30.3552 35.101L29.0092 36.596C29.5996 37.1276 30.4476 37.2619 31.1735 36.9388C31.8993 36.6156 32.3669 35.8955 32.3669 35.101H30.3552ZM30.3552 7.12666H32.3669C32.3669 6.33216 31.8993 5.61208 31.1735 5.28893C30.4476 4.96577 29.5996 5.10007 29.0092 5.63169L30.3552 7.12666ZM14.8204 21.1138L13.4744 19.6189C13.0507 20.0004 12.8087 20.5437 12.8087 21.1138C12.8087 21.684 13.0507 22.2273 13.4744 22.6088L14.8204 21.1138ZM32.3669 35.101V7.12666H28.3436V35.101H32.3669ZM29.0092 5.63169L13.4744 19.6189L16.1664 22.6088L31.7013 8.62163L29.0092 5.63169ZM13.4744 22.6088L29.0092 36.596L31.7013 33.6061L16.1664 19.6189L13.4744 22.6088ZM5.73576 36.4998V5.72794H1.71244V36.4998H5.73576Z" fill="#EAF0FF"/>
</svg>
