<svg width="30" height="31" viewBox="0 0 30 31" fill="none" xmlns="http://www.w3.org/2000/svg">
    <defs>
        <linearGradient id="paint0_linear_800_906" x1="29.0376" y1="-5.2813" x2="12.5352" y2="35.6161" gradientUnits="userSpaceOnUse">
            <stop stop-color="#9B2DEF"/>
            <stop offset="0.597" stop-color="#2D9BEF"/>
            <stop offset="1" stop-color="#2DCEEF"/>
        </linearGradient>
    </defs>
    <path d="M15.0146 11.9891C14.1387 11.9891 13.3183 12.329 12.6972 12.9501C12.0791 13.5712 11.7363 14.3915 11.7363 15.2675C11.7363 16.1434 12.0791 16.9637 12.6972 17.5848C13.3183 18.203 14.1387 18.5458 15.0146 18.5458C15.8906 18.5458 16.7109 18.203 17.332 17.5848C17.9502 16.9637 18.293 16.1434 18.293 15.2675C18.293 14.3915 17.9502 13.5712 17.332 12.9501C17.0287 12.6444 16.6676 12.402 16.2698 12.2371C15.8719 12.0721 15.4453 11.9878 15.0146 11.9891ZM27.0937 18.8885L25.1777 17.2509C25.2685 16.6942 25.3154 16.1259 25.3154 15.5604C25.3154 14.995 25.2685 14.4237 25.1777 13.87L27.0937 12.2323C27.2385 12.1084 27.3421 11.9434 27.3907 11.7592C27.4394 11.5749 27.4308 11.3803 27.3662 11.2011L27.3398 11.1249C26.8125 9.65034 26.0224 8.28354 25.0078 7.0907L24.9551 7.02917C24.8319 6.88431 24.6676 6.78017 24.4841 6.73049C24.3005 6.6808 24.1062 6.6879 23.9267 6.75085L21.5478 7.59753C20.6689 6.87683 19.6904 6.30847 18.6299 5.91296L18.1699 3.42566C18.1352 3.23828 18.0443 3.0659 17.9093 2.93141C17.7743 2.79693 17.6016 2.7067 17.414 2.67273L17.3349 2.65808C15.8115 2.38269 14.206 2.38269 12.6826 2.65808L12.6035 2.67273C12.416 2.7067 12.2433 2.79693 12.1082 2.93141C11.9732 3.0659 11.8823 3.23828 11.8476 3.42566L11.3847 5.92468C10.3342 6.32334 9.35563 6.89033 8.48729 7.60339L6.0908 6.75085C5.91141 6.6874 5.71695 6.68005 5.53327 6.72976C5.34959 6.77947 5.18539 6.8839 5.06248 7.02917L5.00975 7.0907C3.99693 8.28481 3.20703 9.65127 2.67772 11.1249L2.65135 11.2011C2.51951 11.5673 2.62791 11.9774 2.92381 12.2323L4.86326 13.8876C4.77244 14.4384 4.7285 15.0009 4.7285 15.5575C4.7285 16.12 4.77244 16.6825 4.86326 17.2274L2.92967 18.8827C2.78493 19.0066 2.68134 19.1716 2.63267 19.3558C2.584 19.5401 2.59256 19.7347 2.65721 19.9139L2.68358 19.9901C3.21385 21.4637 3.99608 22.8261 5.01561 24.0243L5.06834 24.0858C5.19155 24.2307 5.35576 24.3348 5.53933 24.3845C5.7229 24.4342 5.91721 24.4271 6.09666 24.3641L8.49315 23.5116C9.36619 24.2294 10.3389 24.7977 11.3906 25.1903L11.8535 27.6893C11.8882 27.8767 11.9791 28.0491 12.1141 28.1836C12.2491 28.3181 12.4218 28.4083 12.6094 28.4423L12.6885 28.4569C14.2269 28.7338 15.8024 28.7338 17.3408 28.4569L17.4199 28.4423C17.6074 28.4083 17.7801 28.3181 17.9152 28.1836C18.0502 28.0491 18.1411 27.8767 18.1758 27.6893L18.6357 25.202C19.6963 24.8036 20.6748 24.2382 21.5537 23.5175L23.9326 24.3641C24.112 24.4276 24.3065 24.4349 24.4901 24.3852C24.6738 24.3355 24.838 24.2311 24.9609 24.0858L25.0137 24.0243C26.0332 22.8202 26.8154 21.4637 27.3457 19.9901L27.3721 19.9139C27.498 19.5507 27.3896 19.1434 27.0937 18.8885ZM15.0146 20.4178C12.1699 20.4178 9.86424 18.1122 9.86424 15.2675C9.86424 12.4227 12.1699 10.1171 15.0146 10.1171C17.8594 10.1171 20.165 12.4227 20.165 15.2675C20.165 18.1122 17.8594 20.4178 15.0146 20.4178Z" fill="url(#paint0_linear_800_906)"/>

</svg>
