<svg width="30" height="16" viewBox="0 0 30 16" fill="none" xmlns="http://www.w3.org/2000/svg">
<path d="M5.3531 3.57294C2.77813 5.24514 2.04367 8.70049 3.71588 11.2755C5.38808 13.8504 8.84343 14.5849 11.4184 12.9127C13.9934 11.2405 14.7278 7.78513 13.0556 5.21016C11.3834 2.6352 7.92806 1.90074 5.3531 3.57294ZM10.8119 11.9787C8.75199 13.3164 5.98755 12.7288 4.64985 10.6689C4.29564 10.1235 4.08041 9.52829 3.98745 8.92407C4.08666 8.91939 4.18648 8.91565 4.2841 8.91467C4.54484 8.91132 4.80512 8.90828 5.09329 8.84595C5.38069 8.78347 5.69599 8.6617 6.06538 8.42182C6.43523 8.18163 6.67471 7.94312 6.84886 7.70521C7.023 7.4673 7.13241 7.23093 7.24152 6.99409C7.35064 6.75725 7.45975 6.52041 7.63389 6.2825C7.80787 6.04536 8.04735 5.80685 8.41721 5.56666C8.78706 5.32648 9.10236 5.20471 9.39007 5.14269C9.67794 5.0799 9.93868 5.07656 10.1994 5.07321C10.4602 5.06986 10.7209 5.06652 11.0091 5.00419C11.1125 4.9815 11.2207 4.94775 11.3323 4.90785C11.6283 5.16841 11.8963 5.46972 12.1216 5.81669C13.4593 7.87657 12.8717 10.641 10.8119 11.9787Z" fill="#C4C4C4"/>
<path d="M7.35783 10.2384C7.7447 9.98719 7.85465 9.46991 7.60342 9.08304C7.35218 8.69618 6.8349 8.58623 6.44804 8.83746C6.06117 9.08869 5.95122 9.60597 6.20246 9.99284C6.45369 10.3797 6.97097 10.4897 7.35783 10.2384Z" fill="#C4C4C4"/>
<path d="M10.6268 8.1155C11.0136 7.86426 11.1236 7.34698 10.8723 6.96012C10.6211 6.57325 10.1038 6.4633 9.71696 6.71454C9.3301 6.96577 9.22014 7.48305 9.47138 7.86991C9.72261 8.25678 10.2399 8.36673 10.6268 8.1155Z" fill="#C4C4C4"/>
<path d="M22.2634 9.24063C22.3639 9.08581 22.5218 8.97727 22.7024 8.93889C22.883 8.90051 23.0714 8.93543 23.2262 9.03597C23.381 9.13651 23.4895 9.29443 23.5279 9.475C23.5663 9.65556 23.5314 9.84397 23.4308 9.99879C23.3303 10.1536 23.1724 10.2621 22.9918 10.3005C22.8112 10.3389 22.6228 10.304 22.468 10.2034C22.3132 10.1029 22.2047 9.94498 22.1663 9.76442C22.1279 9.58385 22.1628 9.39544 22.2634 9.24063ZM26.4193 11.2756L23.3866 15.9454L14.0469 9.88015L17.0795 5.21028C18.7475 2.64185 22.2136 1.9051 24.7821 3.57305C27.3505 5.24101 28.0872 8.70715 26.4193 11.2756ZM18.0135 5.81681C16.6761 7.87622 17.2639 10.6414 19.3233 11.9788C21.3827 13.3162 24.1479 12.7285 25.4853 10.669C25.7249 10.3001 25.8993 9.90882 26.0166 9.51358C24.9776 9.13702 24.0745 8.45904 23.423 7.56639C22.7715 6.67373 22.4011 5.60699 22.3592 4.50265C21.1767 5.32155 19.7182 5.65573 18.2977 5.43036C18.1894 5.54595 18.1015 5.68138 18.0135 5.81681ZM19.6661 8.38385C19.8209 8.48439 20.0093 8.51931 20.1899 8.48093C20.3705 8.44255 20.5284 8.33401 20.6289 8.1792C20.7294 8.02438 20.7644 7.83597 20.726 7.65541C20.6876 7.47484 20.5791 7.31692 20.4243 7.21638C20.2694 7.11584 20.081 7.08092 19.9005 7.1193C19.7199 7.15768 19.562 7.26622 19.4614 7.42104C19.3609 7.57585 19.326 7.76427 19.3644 7.94483C19.4027 8.12539 19.5113 8.28331 19.6661 8.38385Z" fill="#C4C4C4"/>
</svg>
